<svg width="410" height="171" viewBox="0 0 410 171" fill="none" xmlns="http://www.w3.org/2000/svg">
<rect x="0.5" y="0.809998" width="408.98" height="170" rx="10" fill="#233138" fill-opacity="0.68"/>
<path d="M29.5288 31.5444V33.058L22.8408 37.2292L22.0488 36.138L28.2616 32.3012L22.0488 28.482L22.7704 27.3556L29.5288 31.5444ZM51.0575 34.4484C51.0575 35.1524 50.8815 35.7743 50.5295 36.314C50.1775 36.842 49.6671 37.2585 48.9983 37.5636C48.3295 37.8569 47.5375 38.0036 46.6223 38.0036C45.7423 38.0036 44.9385 37.8745 44.2111 37.6164C43.4953 37.3465 42.8793 36.9652 42.3631 36.4724L43.2783 35.434C43.7241 35.8564 44.2169 36.1791 44.7567 36.402C45.3081 36.6249 45.9359 36.7364 46.6399 36.7364C47.4377 36.7364 48.1065 36.5428 48.6463 36.1556C49.186 35.7684 49.4559 35.2111 49.4559 34.4836C49.4559 34.0729 49.3796 33.7327 49.2271 33.4628C49.0745 33.1929 48.8047 32.9524 48.4175 32.7412C48.042 32.53 47.5081 32.3247 46.8159 32.1252C45.5017 31.738 44.522 31.2863 43.8767 30.77C43.2313 30.242 42.9087 29.5263 42.9087 28.6228C42.9087 28.0244 43.0729 27.4847 43.4015 27.0036C43.73 26.5225 44.1935 26.1529 44.7919 25.8948C45.3903 25.6249 46.0708 25.49 46.8335 25.49C47.6313 25.49 48.3412 25.6073 48.9631 25.842C49.5967 26.0767 50.1775 26.4228 50.7055 26.8804L49.7903 27.866C48.9572 27.1385 47.9892 26.7748 46.8863 26.7748C46.1823 26.7748 45.6015 26.9273 45.1439 27.2324C44.6863 27.5375 44.4575 27.9833 44.4575 28.57C44.4575 28.922 44.5513 29.2212 44.7391 29.4676C44.9268 29.714 45.2377 29.9428 45.6719 30.154C46.106 30.3652 46.7161 30.5823 47.5023 30.8052C48.6404 31.1337 49.5145 31.562 50.1247 32.09C50.7465 32.618 51.0575 33.4041 51.0575 34.4484ZM55.8906 31.034H60.3962V32.2836H55.8906V36.578H61.417V37.81H54.377V25.6836H61.2586L61.0826 26.9508H55.8906V31.034ZM65.1061 25.6836H66.6197V36.4548H72.1637L71.9701 37.81H65.1061V25.6836ZM76.9968 31.034H81.5024V32.2836H76.9968V36.578H82.5232V37.81H75.4832V25.6836H82.3648L82.1888 26.9508H76.9968V31.034ZM90.1196 25.49C90.8705 25.49 91.5158 25.5897 92.0556 25.7892C92.5953 25.9769 93.1233 26.2703 93.6396 26.6692L92.7772 27.6724C92.0614 27.074 91.2108 26.7748 90.2252 26.7748C89.134 26.7748 88.2422 27.1737 87.55 27.9716C86.8694 28.7577 86.5292 30.0132 86.5292 31.738C86.5292 33.4511 86.8636 34.7065 87.5324 35.5044C88.2012 36.3023 89.0929 36.7012 90.2076 36.7012C90.8177 36.7012 91.3398 36.6132 91.774 36.4372C92.2081 36.2612 92.6246 36.0148 93.0236 35.698L93.8156 36.6836C92.9121 37.5636 91.7036 38.0036 90.19 38.0036C89.1926 38.0036 88.295 37.7631 87.4972 37.282C86.6993 36.7892 86.0716 36.0735 85.614 35.1348C85.1564 34.1961 84.9276 33.0639 84.9276 31.738C84.9276 30.4239 85.1564 29.2975 85.614 28.3588C86.0833 27.4084 86.711 26.6927 87.4972 26.2116C88.295 25.7305 89.1692 25.49 90.1196 25.49ZM100.391 37.81H98.8599V27.0036H95.0759V25.6836H104.21L104.052 27.0036H100.391V37.81Z" fill="#EEEEEE"/>
</svg>
